<svg width="25" height="24" viewBox="0 0 25 24" fill="none" xmlns="http://www.w3.org/2000/svg">
<g clip-path="url(#clip0_179_38)">
<path d="M11 22C5.75329 22 1.5 17.5228 1.5 12C1.5 6.47715 5.75329 2 11 2C16.2467 2 20.5 6.47715 20.5 12C20.5 17.5228 16.2467 22 11 22Z" stroke="#298BF8" stroke-width="2" stroke-linecap="round" stroke-linejoin="round"/>
<path d="M13.5 8.8C12.8637 8.28368 12.0695 8.0013 11.25 8C9.179 8 7.5 9.79 7.5 12C7.5 14.21 9.179 16 11.25 16C12.094 16 12.873 15.702 13.5 15.2" stroke="#298BF8" stroke-width="2" stroke-linecap="round" stroke-linejoin="round"/>
<path d="M10.5 2C14.833 2 23.5 3 23.5 12C23.5 21 14.833 22 10.5 22" stroke="#298BF8" stroke-width="2"/>
</g>
<defs>
<clipPath id="clip0_179_38">
<rect width="24" height="24" fill="white" transform="translate(0.5)"/>
</clipPath>
</defs>
</svg>
