<svg width="20" height="20" viewBox="0 0 20 20" fill="none" xmlns="http://www.w3.org/2000/svg">
<path d="M10.2398 16.4625C6.66632 16.4625 3.7771 13.5733 3.7771 9.99983C3.7771 6.42633 6.66632 3.53711 10.2398 3.53711C13.8133 3.53711 16.7025 6.42633 16.7025 9.99983C16.7025 13.5733 13.8133 16.4625 10.2398 16.4625ZM10.2398 4.29743C7.08449 4.29743 4.53742 6.8445 4.53742 9.99983C4.53742 13.1552 7.08449 15.7022 10.2398 15.7022C13.3951 15.7022 15.9422 13.1552 15.9422 9.99983C15.9422 6.8445 13.3951 4.29743 10.2398 4.29743Z" fill="white"/>
<path d="M6.8186 9.61963H13.6615V10.3799H6.8186V9.61963Z" fill="white"/>
<path d="M9.85986 6.57861H10.6202V13.4215H9.85986V6.57861Z" fill="white"/>
</svg>
