<svg width="47" height="46" viewBox="0 0 47 46" fill="none" xmlns="http://www.w3.org/2000/svg">
<path fill-rule="evenodd" clip-rule="evenodd" d="M24.8001 41C27.0063 41 29.1909 40.5655 31.2292 39.7212C33.2674 38.8769 35.1195 37.6394 36.6795 36.0794C38.2395 34.5194 39.477 32.6674 40.3213 30.6291C41.1655 28.5908 41.6001 26.4062 41.6001 24.2C41.6001 21.9938 41.1655 19.8092 40.3213 17.7709C39.477 15.7327 38.2395 13.8807 36.6795 12.3206C35.1195 10.7606 33.2674 9.52313 31.2292 8.67885C29.1909 7.83457 27.0063 7.40002 24.8001 7.40002C20.3445 7.40002 16.0713 9.17002 12.9207 12.3206C9.77009 15.4712 8.00009 19.7444 8.00009 24.2C8.00009 28.6557 9.77009 32.9288 12.9207 36.0794C16.0713 39.23 20.3445 41 24.8001 41ZM20.2089 13.112C21.6646 12.5096 23.2247 12.1997 24.8001 12.2C25.1184 12.2 25.4236 12.0736 25.6486 11.8486C25.8737 11.6235 26.0001 11.3183 26.0001 11C26.0001 10.6818 25.8737 10.3765 25.6486 10.1515C25.4236 9.92645 25.1184 9.80002 24.8001 9.80002C20.981 9.80002 17.3183 11.3172 14.6178 14.0177C11.9172 16.7182 10.4001 20.3809 10.4001 24.2C10.4001 24.5183 10.5265 24.8235 10.7516 25.0486C10.9766 25.2736 11.2818 25.4 11.6001 25.4C11.9184 25.4 12.2236 25.2736 12.4486 25.0486C12.6737 24.8235 12.8001 24.5183 12.8001 24.2C12.7999 21.8263 13.5037 19.5058 14.8225 17.5321C16.1413 15.5584 18.0158 14.0202 20.2089 13.112Z" fill="#265486"/>
<path d="M45.2001 44.6001L36.8001 36.2001" stroke="#298BF8" stroke-width="2.4" stroke-linecap="round"/>
<path d="M22.4 42.2C33.6667 42.2 42.8 33.0666 42.8 21.8C42.8 10.5334 33.6667 1.40002 22.4 1.40002C11.1334 1.40002 2.00005 10.5334 2.00005 21.8C2.00005 33.0666 11.1334 42.2 22.4 42.2Z" stroke="#298BF8" stroke-width="2.4"/>
</svg>
