<svg width="21" height="22" viewBox="0 0 21 22" fill="none" xmlns="http://www.w3.org/2000/svg">
<path d="M13.399 12.8281L16.3996 10.2361L16.5292 10.2456C16.664 10.2617 16.7691 10.319 16.8446 10.4175C16.92 10.516 16.9578 10.622 16.9578 10.7355C16.9578 10.8012 16.9457 10.8634 16.9215 10.9221C16.8973 10.9809 16.8529 11.0324 16.7884 11.0768L14.409 13.1417L15.1287 16.2737C15.1316 16.2899 15.133 16.308 15.133 16.3282V16.3817C15.133 16.5182 15.0884 16.6306 14.9991 16.7187C14.9092 16.8062 14.7989 16.85 14.6682 16.85C14.6273 16.85 14.5844 16.8477 14.5394 16.8431C14.4945 16.8385 14.4527 16.8198 14.4142 16.7869L14.3087 16.7221L13.399 12.8281ZM11.7504 7.73309L10.9098 5.74934L10.9547 5.63962C10.9927 5.5417 11.0515 5.46595 11.131 5.41238C11.2104 5.35882 11.2954 5.33203 11.3858 5.33203C11.4763 5.33203 11.5647 5.35882 11.6511 5.41238C11.7375 5.46595 11.8 5.53997 11.8386 5.63443L12.7605 7.82813L11.7504 7.73309ZM6.35044 15.1687L9.07204 13.5271L11.7936 15.1903L11.0808 12.0799L13.4784 10.0063L10.3248 9.72547L9.07204 6.78787L7.81924 9.70387L4.66564 9.98467L7.06324 12.0799L6.35044 15.1687ZM5.4035 15.376L6.10507 12.39L3.793 10.3787C3.71121 10.3032 3.64958 10.2208 3.60811 10.1316C3.56663 10.0423 3.5459 9.95299 3.5459 9.86371C3.5459 9.69898 3.60321 9.54576 3.71783 9.40406C3.83246 9.26294 3.98999 9.18345 4.19044 9.1656L7.24295 8.89689L8.42231 6.08371C8.48049 5.94374 8.57063 5.83891 8.69275 5.76922C8.81486 5.69952 8.93985 5.66467 9.06772 5.66467C9.19559 5.66467 9.32174 5.69952 9.44615 5.76922C9.57057 5.83891 9.66244 5.94374 9.72177 6.08371L10.902 8.89689L13.9536 9.1656C14.1541 9.18288 14.3116 9.26237 14.4262 9.40406C14.5414 9.54461 14.599 9.69725 14.599 9.86198C14.599 9.95587 14.578 10.0466 14.536 10.1341C14.4945 10.2217 14.4329 10.3032 14.3511 10.3787L12.0399 12.39L12.7466 15.3769C12.757 15.4086 12.7622 15.4598 12.7622 15.5307C12.7622 15.7306 12.6931 15.8979 12.5548 16.0327C12.4154 16.168 12.2533 16.2357 12.0684 16.2357C12.0338 16.2357 11.9091 16.198 11.6943 16.1225L9.07204 14.544L6.45067 16.1225C6.38961 16.1548 6.32711 16.1816 6.26318 16.2029C6.19924 16.2242 6.13819 16.2351 6.08001 16.2357C5.87035 16.2357 5.69006 16.1507 5.53915 15.9808C5.38823 15.8109 5.34302 15.6093 5.4035 15.376Z" fill="#666B74"/>
</svg>
