<svg width="25" height="24" viewBox="0 0 25 24" fill="none" xmlns="http://www.w3.org/2000/svg">
<path d="M4.5 17H4C3.60218 17 3.22064 17.158 2.93934 17.4393C2.65804 17.7206 2.5 18.1022 2.5 18.5C2.5 18.8978 2.65804 19.2794 2.93934 19.5607C3.22064 19.842 3.60218 20 4 20H21C21.3978 20 21.7794 19.842 22.0607 19.5607C22.342 19.2794 22.5 18.8978 22.5 18.5C22.5 18.1022 22.342 17.7206 22.0607 17.4393C21.7794 17.158 21.3978 17 21 17H20.5M4.5 17H20.5M4.5 17V8.2C4.5 7.08 4.5 6.52 4.718 6.092C4.91 5.715 5.215 5.41 5.592 5.218C6.02 5 6.58 5 7.7 5H17.3C18.42 5 18.98 5 19.407 5.218C19.784 5.41 20.09 5.715 20.282 6.092C20.5 6.519 20.5 7.079 20.5 8.197V17" stroke="#666B74" stroke-width="2" stroke-linecap="round" stroke-linejoin="round"/>
</svg>
