<svg width="67" height="67" viewBox="0 0 67 67" fill="none" xmlns="http://www.w3.org/2000/svg">
<g clip-path="url(#clip0_174_306)">
<path d="M33.557 18.3936C33.557 22.3849 31.9714 26.2128 29.1491 29.0351C26.3268 31.8574 22.4989 33.443 18.5076 33.443C14.5163 33.443 10.6884 31.8574 7.86611 29.0351C5.0438 26.2128 3.45825 22.3849 3.45825 18.3936C3.45825 14.4023 5.0438 10.5744 7.86611 7.75209C10.6884 4.92979 14.5163 3.34424 18.5076 3.34424C22.4989 3.34424 26.3268 4.92979 29.1491 7.75209C31.9714 10.5744 33.557 14.4023 33.557 18.3936ZM20.1798 11.705C20.1798 11.2615 20.0036 10.8362 19.69 10.5226C19.3764 10.209 18.9511 10.0328 18.5076 10.0328C18.0641 10.0328 17.6388 10.209 17.3252 10.5226C17.0116 10.8362 16.8355 11.2615 16.8355 11.705V16.7214H11.819C11.3755 16.7214 10.9502 16.8976 10.6366 17.2112C10.323 17.5248 10.1469 17.9501 10.1469 18.3936C10.1469 18.8371 10.323 19.2624 10.6366 19.576C10.9502 19.8896 11.3755 20.0657 11.819 20.0657H16.8355V25.0822C16.8355 25.5257 17.0116 25.951 17.3252 26.2646C17.6388 26.5782 18.0641 26.7544 18.5076 26.7544C18.9511 26.7544 19.3764 26.5782 19.69 26.2646C20.0036 25.951 20.1798 25.5257 20.1798 25.0822V20.0657H25.1962C25.6397 20.0657 26.065 19.8896 26.3786 19.576C26.6922 19.2624 26.8684 18.8371 26.8684 18.3936C26.8684 17.9501 26.6922 17.5248 26.3786 17.2112C26.065 16.8976 25.6397 16.7214 25.1962 16.7214H20.1798V11.705ZM46.9342 13.3771H36.209C35.8811 12.2222 35.4409 11.102 34.8947 10.0328H46.9342C49.5951 10.0328 52.147 11.0899 54.0285 12.9714C55.91 14.8529 56.9671 17.4049 56.9671 20.0657V46.8202C56.9671 49.4811 55.91 52.033 54.0285 53.9145C52.147 55.796 49.5951 56.8531 46.9342 56.8531H20.1798C17.5189 56.8531 14.967 55.796 13.0854 53.9145C11.2039 52.033 10.1469 49.4811 10.1469 46.8202V34.7807C11.2081 35.3247 12.3229 35.7628 13.4912 36.095V46.8202C13.4912 48.0676 13.8323 49.2347 14.4276 50.2313L30.0421 34.8877C30.9801 33.9665 32.2423 33.4504 33.557 33.4504C34.8717 33.4504 36.1338 33.9665 37.0718 34.8877L52.6897 50.2313C53.3012 49.1986 53.6234 48.0203 53.6228 46.8202V20.0657C53.6228 18.2918 52.9181 16.5905 51.6637 15.3362C50.4094 14.0818 48.7081 13.3771 46.9342 13.3771ZM46.9342 25.0822C46.9342 25.741 46.8044 26.3933 46.5523 27.0019C46.3002 27.6105 45.9307 28.1635 45.4649 28.6294C44.9991 29.0952 44.4461 29.4647 43.8374 29.7168C43.2288 29.9689 42.5765 30.0987 41.9177 30.0987C41.259 30.0987 40.6066 29.9689 39.998 29.7168C39.3894 29.4647 38.8364 29.0952 38.3706 28.6294C37.9047 28.1635 37.5352 27.6105 37.2831 27.0019C37.031 26.3933 36.9013 25.741 36.9013 25.0822C36.9013 23.7518 37.4298 22.4758 38.3706 21.535C39.3113 20.5943 40.5873 20.0657 41.9177 20.0657C43.2482 20.0657 44.5241 20.5943 45.4649 21.535C46.4057 22.4758 46.9342 23.7518 46.9342 25.0822ZM43.5899 25.0822C43.5899 24.6387 43.4137 24.2134 43.1001 23.8998C42.7865 23.5862 42.3612 23.41 41.9177 23.41C41.4742 23.41 41.0489 23.5862 40.7353 23.8998C40.4217 24.2134 40.2456 24.6387 40.2456 25.0822C40.2456 25.5257 40.4217 25.951 40.7353 26.2646C41.0489 26.5782 41.4742 26.7544 41.9177 26.7544C42.3612 26.7544 42.7865 26.5782 43.1001 26.2646C43.4137 25.951 43.5899 25.5257 43.5899 25.0822ZM16.7953 52.5924C17.8219 53.1934 18.9902 53.5097 20.1798 53.5088H46.9342C48.1716 53.5088 49.3254 53.1743 50.3186 52.5924L34.7275 37.2755C34.4149 36.9691 33.9947 36.7975 33.557 36.7975C33.1193 36.7975 32.699 36.9691 32.3865 37.2755L16.7953 52.5924Z" fill="black"/>
</g>
<defs>
<clipPath id="clip0_174_306">
<rect x="0.114014" width="66.886" height="66.886" rx="5.6448" fill="white"/>
</clipPath>
</defs>
</svg>
